HIERARCHY
ROOT root     
{
	OFFSET 0.0000 0.0000 0.0000
	CHANNELS 6 Xposition Yposition Zposition Zrotation Yrotation Xrotation
	JOINT pelvis   
	{
		OFFSET 0.0000 0.0000 0.0000
		CHANNELS 3 Zrotation Yrotation Xrotation
		JOINT thorax   
		{
			OFFSET 0.0000 23.0750 -5.0000
			CHANNELS 3 Zrotation Yrotation Xrotation
			JOINT rclavicle
			{
				OFFSET 0.0000 28.0009 0.0000
				CHANNELS 3 Zrotation Yrotation Xrotation
				JOINT rhumerus 
				{
					OFFSET -18.5725 5.5939 0.0000
					CHANNELS 3 Zrotation Yrotation Xrotation
					JOINT rradius  
					{
						OFFSET -24.8459 0.0000 0.0000
						CHANNELS 3 Zrotation Yrotation Xrotation
						JOINT rhand    
						{
							OFFSET -24.5477 0.0000 0.0000
							CHANNELS 3 Zrotation Yrotation Xrotation
							End Site
							{
								OFFSET -8.1826 0.0000 0.0000
							}
						}
					}
				}
			}
			JOINT lclavicle
			{
				OFFSET 0.0000 28.0009 0.0000
				CHANNELS 3 Zrotation Yrotation Xrotation
				JOINT lhumerus 
				{
					OFFSET 18.5725 5.5939 0.0000
					CHANNELS 3 Zrotation Yrotation Xrotation
					JOINT lradius  
					{
						OFFSET 24.8459 0.0000 0.0000
						CHANNELS 3 Zrotation Yrotation Xrotation
						JOINT lhand    
						{
							OFFSET 24.5477 0.0000 0.0000
							CHANNELS 3 Zrotation Yrotation Xrotation
							End Site
							{
								OFFSET 8.1826 0.0000 0.0000
							}
						}
					}
				}
			}
			JOINT head     
			{
				OFFSET 0.0000 35.2030 0.0000
				CHANNELS 3 Zrotation Yrotation Xrotation
				End Site
				{
					OFFSET 0.0000 11.7343 0.0000
				}
			}
		}
		JOINT rfemur   
		{
			OFFSET -8.2817 0.0000 0.0000
			CHANNELS 3 Zrotation Yrotation Xrotation
			JOINT rtibia   
			{
				OFFSET 0.0000 -43.3627 0.0000
				CHANNELS 3 Zrotation Yrotation Xrotation
				JOINT rfoot    
				{
					OFFSET 0.0000 -38.2947 0.0000
					CHANNELS 3 Zrotation Yrotation Xrotation
					JOINT rtoes    
					{
						OFFSET 0.0000 0.0000 16.6054
						CHANNELS 3 Zrotation Yrotation Xrotation
						End Site
						{
							OFFSET 0.0000 0.0000 5.5351
						}
					}
				}
			}
		}
		JOINT lfemur   
		{
			OFFSET 8.2817 0.0000 0.0000
			CHANNELS 3 Zrotation Yrotation Xrotation
			JOINT ltibia   
			{
				OFFSET 0.0000 -43.3627 0.0000
				CHANNELS 3 Zrotation Yrotation Xrotation
				JOINT lfoot    
				{
					OFFSET 0.0000 -38.2947 0.0000
					CHANNELS 3 Zrotation Yrotation Xrotation
					JOINT ltoes    
					{
						OFFSET 0.0000 0.0000 16.6054
						CHANNELS 3 Zrotation Yrotation Xrotation
						End Site
						{
							OFFSET 0.0000 0.0000 5.5351
						}
					}
				}
			}
		}
	}
}
MOTION
Frames: 21
Frame Time: .0333333
162.05 73.496 15.536 -149.831 -87.3258 175.752 0 -0 0 -6.76247 7.79171 16.7995 24.3943 -6.38987 -1.85643e-05 46.5609 10.5344 10.3109 -0 90 -0 -1.34479 6.64752 -0.0780996 -21.2326 17.414 -3.72362e-05 -55.3124 26.2685 3.2603 0 -78.9746 0 0.239307 -0.380397 -0.000800074 1.41792 -2.29921 -22.5769 2.16723 -9.17987 -11.4102 -0 -0 46.4475 3.35792e-06 2.17585 -14.5941 -0.548494 -2.93102e-06 -67.597 -8.55142 6.25504 -73.0459 -0 -0 61.2631 -1.12479e-06 9.75046 -3.46648 -0.595299 2.74988e-06 -17.0721 
160.77 73.356 15.561 -151.761 -87.1948 177.424 0 -0 0 -7.39057 7.94218 16.6817 24.5953 -6.26859 5.35371e-05 46.8045 10.3748 10.5558 -1.95221e-05 89.3668 -1.97289e-05 -1.29482 6.65639 -0.0753008 -21.3625 17.2903 -1.34176e-05 -55.0146 25.8722 3.15458 1.97544e-06 -78.8132 -2.40438e-06 0.353005 -0.348999 -0.00110002 1.77775 -2.22477 -22.4187 1.79612 -9.08131 -10.687 -0 -0 46.9252 -9.6286e-07 2.43045 -12.7949 -0.5386 -8.53249e-07 -70.3195 -8.61194 6.46451 -72.5827 -0 -0 62.6592 2.16635e-06 9.8864 -4.69864 -0.817884 3.94092e-06 -15.8321 
159.5 73.232 15.587 -153.181 -87.0846 178.601 0 -0 0 -7.97313 8.054 16.5564 24.7801 -6.14385 5.8436e-05 47.0901 10.2269 10.818 -1.00575e-05 88.6886 -9.8311e-06 -1.24358 6.67378 -0.0724993 -21.5218 17.1687 6.23544e-05 -54.7123 25.3876 3.06215 9.68635e-07 -78.6105 -1.18315e-06 0.475994 -0.317096 -0.00129996 2.13011 -2.14415 -22.2171 1.45722 -8.96228 -10.0691 -0 -0 47.5317 9.99353e-06 2.65568 -10.8597 -0.500698 7.50586e-06 -72.5904 -8.64202 6.65426 -72.0447 -0 -0 63.9349 -2.41089e-06 10.064 -6.06073 -1.07352 -1.4293e-06 -14.9365 
158.24 73.124 15.613 -154.107 -86.9801 179.298 0 -0 0 -8.50791 8.12745 16.416 24.947 -6.01686 4.01495e-05 47.4202 10.0902 11.0946 -0 87.8722 -0 -1.19422 6.69571 -0.0699015 -21.7049 17.0548 -8.02257e-05 -54.4124 24.8181 2.98024 -1.16128e-06 -78.3793 9.46743e-07 0.603006 -0.284801 -0.00150019 2.4715 -2.05666 -21.9785 1.1588 -8.82468 -9.57679 -0 -0 48.2827 -6.86326e-06 2.81614 -8.84139 -0.433197 -2.39806e-06 -74.2528 -8.6322 6.81714 -71.4434 -0 -0 65.0921 -6.77582e-06 10.2899 -7.48886 -1.35548 6.08069e-06 -14.4123 
157 73.033 15.64 -154.597 -86.8555 179.574 0 -0 0 -8.99389 8.16389 16.2565 25.0936 -5.88926 4.17023e-05 47.7919 9.96302 11.38 -4.33605e-06 86.9365 -4.57475e-06 -1.15011 6.7188 -0.0675006 -21.9114 16.9404 4.142e-05 -54.1206 24.1746 2.89766 9.23283e-07 -78.112 -1.13788e-06 0.729299 -0.251696 -0.00159989 2.79875 -1.96171 -21.7185 0.908715 -8.67071 -9.22967 -0 -0 49.1856 -6.01541e-06 2.86693 -6.80801 -0.340101 -5.06002e-06 -75.2125 -8.57774 6.94863 -70.7975 -0 -0 66.1326 -9.14551e-06 10.5658 -8.9179 -1.65626 -6.34207e-06 -14.2685 
155.78 72.958 15.666 -154.641 -86.7386 179.442 0 -0 0 -9.42646 8.16827 16.0715 25.2237 -5.76035 -3.30557e-05 48.204 9.83933 11.6643 -0 85.8851 -0 -1.11141 6.73796 -0.065401 -22.1269 16.8404 1.61268e-05 -53.8568 23.4362 2.82252 8.97183e-07 -77.8027 -1.11184e-06 0.852506 -0.2186 -0.00160002 3.10782 -1.86097 -21.4523 0.71782 -8.49802 -9.04355 -0 -0 50.2437 4.45081e-06 2.75511 -4.84316 -0.232803 -6.3007e-06 -75.4341 -8.47588 7.05104 -70.126 -0 -0 67.0658 7.91518e-07 10.8867 -10.2903 -1.9677 -1.33536e-05 -14.4755 
154.59 72.9 15.694 -154.608 -86.6092 179.262 0 -0 0 -9.83068 8.13932 15.8678 25.3438 -5.63361 -3.33703e-05 48.6515 9.72526 11.9482 -3.44861e-06 84.7519 -3.14643e-06 -1.0864 6.75248 -0.0640998 -22.3713 16.7129 4.59161e-05 -53.6011 22.6669 2.71426 1.74574e-06 -77.5004 -2.17517e-06 0.972906 -0.179799 -0.0015 3.40386 -1.74983 -21.1997 0.56591 -8.3298 -9.02529 -0 -0 51.4632 4.27694e-08 2.44803 -3.01636 -0.1289 -9.26943e-07 -74.9347 -8.34758 7.12065 -69.4354 -0 -0 67.893 -4.9538e-05 11.2496 -11.5631 -2.28298 -6.047e-07 -14.9674 
153.43 72.86 15.719 -154.206 -86.4591 178.75 0 -0 0 -10.1827 8.08862 15.6474 25.4535 -5.50349 -4.82229e-05 49.1245 9.6027 12.2076 -0 83.5552 -0 -1.066 6.75559 -0.0629 -22.6008 16.6122 0.000143255 -53.3899 21.7816 2.62213 -1.06006e-06 -77.1352 8.4526e-07 1.09241 -0.139199 -0.00130002 3.67627 -1.6344 -20.9801 0.48139 -8.1476 -9.18184 -0 -0 52.8294 4.67507e-07 1.88882 -1.42413 -0.0469999 7.45716e-07 -73.7341 -8.18249 7.17498 -68.7487 -0 -0 68.6319 1.37844e-05 11.6365 -12.7067 -2.59361 -2.20316e-05 -15.6575 
152.31 72.84 15.745 -153.837 -86.3134 178.312 0 -0 0 -10.5122 8.01511 15.416 25.5656 -5.37445 -3.05013e-05 49.6138 9.48255 12.4483 -0 82.2873 -0 -1.06051 6.74891 -0.062501 -22.8512 16.4717 -8.0563e-05 -53.1982 20.8724 2.48839 3.85463e-07 -76.7854 -9.72504e-07 1.21517 -0.0904997 -0.00100006 3.93061 -1.50917 -20.8076 0.434095 -7.97938 -9.51208 -0 -0 54.3393 2.93492e-08 1.0706 -0.118996 -0.00219996 -1.17055e-08 -71.9251 -8.01069 7.21461 -68.0666 -0 -0 69.2778 -0.000122994 12.0394 -13.7111 -2.89383 1.13148e-05 -16.4483 
151.21 72.838 15.769 -153.316 -86.1582 177.755 0 -0 0 -10.7995 7.92788 15.1881 25.6807 -5.24179 -1.89712e-05 50.1115 9.34925 12.6501 -1.77135e-06 80.9958 -2.07414e-06 -1.06051 6.72882 -0.0623003 -23.095 16.3241 0.000104294 -53.0413 19.8838 2.35025 -1.00915e-06 -76.404 7.94191e-07 1.34717 -0.0336004 -0.00039994 4.15756 -1.37799 -20.6999 0.442092 -7.81439 -10.0078 -0 -0 55.9695 -1.47561e-09 -0.0208 0.838207 -0.000299996 -1.3272e-09 -69.5196 -7.82838 7.25936 -67.3993 -0 -0 69.8446 2.4945e-05 12.4353 -14.5828 -3.17784 1.26997e-05 -17.2431 
150.15 72.856 15.792 -152.784 -85.9797 177.21 0 -0 0 -11.0511 7.82924 14.9727 25.8052 -5.10553 1.66753e-05 50.6051 9.20408 12.8102 -0 79.6794 -0 -1.0674 6.69705 -0.0624992 -23.3422 16.1483 -9.11905e-06 -52.9075 18.8422 2.19397 -9.84404e-07 -76.0186 7.69359e-07 1.49594 0.0342994 0.000400007 4.35529 -1.23883 -20.6632 0.4924 -7.66542 -10.659 -0 -0 57.7015 6.93482e-09 -1.35907 1.42085 -0.0337003 -2.20474e-08 -66.5806 -7.65012 7.31919 -66.7419 -0 -0 70.3331 4.22202e-05 12.8138 -15.3371 -3.44281 -2.06425e-06 -17.9728 
149.12 72.896 15.812 -152.189 -85.797 176.624 0 -0 0 -11.2635 7.72144 14.7865 25.9432 -4.96573 -1.62433e-05 51.0868 9.04589 12.9225 -2.79704e-06 78.3631 -2.95409e-06 -1.07531 6.65445 -0.062501 -23.583 15.9674 6.42232e-05 -52.7983 17.7092 2.04845 7.43991e-07 -75.5997 -9.59137e-07 1.67014 0.114199 0.00170003 4.51871 -1.09032 -20.7032 0.581807 -7.53781 -11.4508 -0 -0 59.5092 -3.02106e-07 -2.89885 1.62032 -0.0819997 -6.20582e-07 -63.1643 -7.48176 7.40646 -66.0898 -0 -0 70.7443 4.9481e-05 13.1582 -16.0029 -3.68756 1.67625e-06 -18.5884 
148.12 72.957 15.833 -151.747 -85.6094 176.203 0 -0 0 -11.4507 7.60317 14.6299 26.102 -4.81955 -2.36979e-05 51.5443 8.87388 12.9917 -2.50494e-06 77.0406 -2.6622e-06 -1.09012 6.6046 -0.0629013 -23.843 15.7184 -3.50775e-05 -52.6877 16.5758 1.86588 0 -75.2146 0 1.87552 0.206396 0.00340002 4.64959 -0.928715 -20.8116 0.687899 -7.44401 -12.3755 -0 -0 61.3734 -2.00065e-06 -4.566 1.44743 -0.115599 -3.09569e-07 -59.2824 -7.34193 7.52492 -65.4374 -0 -0 71.0741 0.000139195 13.4654 -16.5989 -3.91323 1.44731e-05 -19.0905 
147.14 73.04 15.853 -151.252 -85.4085 175.731 0 -0 0 -11.5921 7.4754 14.519 26.2769 -4.6683 -8.46989e-06 51.9739 8.68781 13.0117 -0 75.7283 -0 -1.1024 6.55056 -0.0630996 -24.1069 15.4495 0.000133997 -52.5789 15.3716 1.69803 9.89822e-07 -74.8121 -1.29435e-06 2.11857 0.311396 0.0057998 4.73965 -0.754842 -20.9838 0.820874 -7.38119 -13.4128 -0 -0 63.2579 -2.22409e-07 -6.28663 0.936206 -0.103101 2.84451e-07 -55.0344 -7.22037 7.68653 -64.774 -0 -0 71.3261 4.85049e-06 13.7262 -17.1563 -4.12105 -2.49621e-05 -19.479 
146.18 73.143 15.872 -150.737 -85.2132 175.24 0 -0 0 -11.6879 7.33448 14.4598 26.4687 -4.51626 -2.66057e-05 52.3704 8.49217 12.9891 -9.61502e-07 74.4245 -1.26617e-06 -1.11148 6.4971 -0.0630987 -24.3735 15.1828 2.73921e-05 -52.4639 14.0752 1.56796 -1.26335e-06 -74.387 9.58684e-07 2.40461 0.427698 0.00900006 4.78964 -0.565965 -21.2065 0.971906 -7.35413 -14.5526 -0 -0 65.1369 -3.43927e-07 -7.9725 0.136304 -0.0191001 -1.68225e-07 -50.5099 -7.12073 7.89281 -64.0938 -0 -0 71.5006 3.19932e-05 13.937 -17.6925 -4.31298 8.06266e-07 -19.7838 
145.24 73.266 15.894 -150.333 -85.0086 174.852 0 -0 0 -11.7498 7.17653 14.4389 26.6784 -4.35496 -3.11261e-05 52.7308 8.27496 12.9257 -1.1815e-06 73.1314 -8.76353e-07 -1.123 6.44795 -0.0633005 -24.6612 14.8479 -0.000117451 -52.3224 12.7951 1.42144 9.31854e-07 -73.9953 -1.23669e-06 2.73237 0.5497 0.0131004 4.80562 -0.361503 -21.4535 1.12554 -7.36567 -15.791 -0 -0 66.9927 1.04002e-06 -9.53534 -0.892303 0.149904 1.05601e-06 -45.793 -7.05129 8.13992 -63.3898 -0 -0 71.5911 -7.61344e-05 14.1037 -18.2152 -4.49056 1.0072e-05 -20.0649 
144.32 73.408 15.916 -149.883 -84.8071 174.412 0 -0 0 -11.7631 6.99705 14.4633 26.899 -4.19482 -1.93524e-05 53.0553 8.04843 12.8285 -1.10938e-06 71.8438 -8.037e-07 -1.1331 6.40963 -0.0634997 -24.9522 14.5178 -4.46545e-05 -52.1584 11.4389 1.32456 0 -73.592 0 3.10113 0.677098 0.0182994 4.78782 -0.142099 -21.7111 1.29177 -7.41177 -17.1114 -0 -0 68.7947 6.91588e-06 -10.9076 -2.07226 0.399206 -4.96136e-06 -41.0795 -6.99864 8.42751 -62.6605 -0 -0 71.6068 -4.57499e-05 14.224 -18.7288 -4.6532 2.7645e-05 -20.3619 
143.41 73.567 15.938 -149.413 -84.6046 173.938 0 -0 0 -11.7316 6.79102 14.524 27.1261 -4.03465 7.1515e-06 53.3465 7.80479 12.7011 -0 70.5586 -0 -1.14669 6.3869 -0.063999 -25.2498 14.1749 2.86203e-05 -51.9644 10.046 1.26422 -1.18523e-06 -73.1926 8.80102e-07 3.50602 0.804306 0.0246002 4.74579 0.0908902 -21.956 1.46776 -7.49049 -18.5114 -0 -0 70.5239 -2.57429e-06 -12.0329 -3.32547 0.708394 5.34157e-06 -36.5447 -6.96022 8.7483 -61.903 -0 -0 71.5497 5.33116e-05 14.3035 -19.2244 -4.79902 -5.26067e-06 -20.7299 
142.51 73.74 15.963 -148.944 -84.4161 173.462 0 -0 0 -11.6599 6.55493 14.6115 27.3592 -3.88077 1.25966e-05 53.6047 7.54767 12.5516 -9.69591e-07 69.2754 -1.40355e-06 -1.16844 6.38483 -0.0651965 -25.5424 13.8374 0.000131564 -51.7418 8.60808 1.25555 8.56029e-07 -72.7883 -1.16133e-06 3.93963 0.926407 0.0318995 4.6915 0.333795 -22.1685 1.6527 -7.59865 -19.9872 -0 -0 72.1631 -9.75652e-07 -12.875 -4.57399 1.0443 -7.27656e-07 -32.3976 -6.93329 9.09242 -61.1213 -0 -0 71.4263 -0.000134071 14.3463 -19.6907 -4.92504 -9.33715e-06 -21.2114 
141.63 73.924 15.988 -148.45 -84.2458 172.955 0 -0 0 -11.5513 6.28543 14.7162 27.5934 -3.73783 6.15811e-06 53.8344 7.27344 12.3845 -6.36913e-07 67.9888 -9.44434e-07 -1.20465 6.40842 -0.0674032 -25.8224 13.5124 0.000158312 -51.4952 7.12916 1.30429 0 -72.3833 0 4.39214 1.0387 0.0398006 4.63867 0.582116 -22.333 1.8498 -7.73186 -21.5319 -0 -0 73.6979 -3.52956e-06 -13.4191 -5.74685 1.36859 -2.54737e-06 -28.8303 -6.91213 9.45042 -60.319 -0 -0 71.2471 -8.22933e-05 14.3532 -20.1081 -5.02743 1.74124e-05 -21.8334 
140.75 74.118 16.014 -147.917 -84.0864 172.402 0 -0 0 -11.4064 5.97956 14.8357 27.8251 -3.60965 1.79561e-05 54.0364 6.98418 12.2054 -9.01766e-07 66.708 -5.93566e-07 -1.25978 6.46164 -0.0710984 -26.0834 13.221 -0.000210646 -51.2278 5.59559 1.42393 0 -71.9764 0 4.85175 1.13959 0.0483005 4.5994 0.831783 -22.4375 2.06702 -7.8844 -23.136 -0 -0 75.11 -1.30375e-05 -13.6709 -6.78835 1.64687 -1.41687e-05 -25.9886 -6.88678 9.81199 -59.499 -0 -0 71.0226 -4.43996e-05 14.325 -20.4651 -5.10188 2.26043e-05 -22.5952 
